<?xml version="1.0" encoding="UTF-8" standalone="no"?>
<!-- Created with Inkscape (http://www.inkscape.org/) -->
<svg
   xmlns:dc="http://purl.org/dc/elements/1.1/"
   xmlns:cc="http://creativecommons.org/ns#"
   xmlns:rdf="http://www.w3.org/1999/02/22-rdf-syntax-ns#"
   xmlns:svg="http://www.w3.org/2000/svg"
   xmlns="http://www.w3.org/2000/svg"
   xmlns:sodipodi="http://sodipodi.sourceforge.net/DTD/sodipodi-0.dtd"
   xmlns:inkscape="http://www.inkscape.org/namespaces/inkscape"
   width="420"
   height="200"
   id="svg2"
   sodipodi:version="0.32"
   inkscape:version="0.46"
   version="1.0"
   sodipodi:docname="dlib4.svg"
   inkscape:output_extension="org.inkscape.output.svg.inkscape"
   inkscape:export-filename="/media/DATA_/Tim/dlib/new-logo/dlib3.png"
   inkscape:export-xdpi="90"
   inkscape:export-ydpi="90">
  <defs
     id="defs4">
    <inkscape:perspective
       sodipodi:type="inkscape:persp3d"
       inkscape:vp_x="0 : 526.18109 : 1"
       inkscape:vp_y="0 : 1000 : 0"
       inkscape:vp_z="744.09448 : 526.18109 : 1"
       inkscape:persp3d-origin="372.04724 : 350.78739 : 1"
       id="perspective10" />
  </defs>
  <sodipodi:namedview
     id="base"
     pagecolor="#ffffff"
     bordercolor="#666666"
     borderopacity="1.0"
     gridtolerance="10000"
     guidetolerance="10"
     objecttolerance="10"
     inkscape:pageopacity="0.0"
     inkscape:pageshadow="2"
     inkscape:zoom="0.7"
     inkscape:cx="444.43518"
     inkscape:cy="-7.5081362"
     inkscape:document-units="px"
     inkscape:current-layer="layer1"
     showgrid="false"
     inkscape:window-width="1280"
     inkscape:window-height="744"
     inkscape:window-x="0"
     inkscape:window-y="0" />
  <metadata
     id="metadata7">
    <rdf:RDF>
      <cc:Work
         rdf:about="">
        <dc:format>image/svg+xml</dc:format>
        <dc:type
           rdf:resource="http://purl.org/dc/dcmitype/StillImage" />
      </cc:Work>
    </rdf:RDF>
  </metadata>
  <g
     inkscape:label="Layer 1"
     inkscape:groupmode="layer"
     id="layer1">
    <rect
       style="opacity:1;fill:#c83737;fill-opacity:1;stroke:#c83737;stroke-width:0;stroke-linecap:butt;stroke-linejoin:miter;stroke-miterlimit:4;stroke-dasharray:none;stroke-dashoffset:0;stroke-opacity:1"
       id="rect7948"
       width="24.870016"
       height="119.52858"
       x="129.82668"
       y="9.4853544"
       ry="13.395539" />
    <path
       style="opacity:1;fill:#c83737;fill-opacity:1;stroke:none;stroke-width:108.12260437;stroke-linecap:butt;stroke-linejoin:miter;stroke-miterlimit:4;stroke-dasharray:none;stroke-dashoffset:0;stroke-opacity:1"
       d="M 83.258498,50.591161 C 44.110548,50.591161 11.968222,82.398149 11.968222,121.43503 C 11.968222,160.47191 44.110548,192.2789 83.258498,192.2789 C 122.40645,192.2789 154.54156,160.47191 154.54156,121.43503 C 154.54156,82.398149 122.40645,50.591161 83.258498,50.591161 z M 83.258498,75.616152 C 109.02715,75.616152 129.56542,96.07361 129.56542,121.43503 C 129.56542,146.79645 109.02715,167.25391 83.258498,167.25391 C 57.489849,167.25391 36.944362,146.79645 36.944362,121.43503 C 36.944362,96.07361 57.489849,75.616152 83.258498,75.616152 z"
       id="path7167" />
    <path
       style="opacity:1;fill:#808080;fill-opacity:1;stroke:none;stroke-width:108.12260437000000479;stroke-linecap:butt;stroke-linejoin:miter;stroke-miterlimit:4;stroke-dasharray:none;stroke-dashoffset:0;stroke-opacity:1"
       d="M 335.40451,49.214641 C 296.25656,49.214641 264.11424,81.021629 264.11424,120.05851 C 264.11424,159.09539 296.25656,190.90238 335.40451,190.90238 C 374.55246,190.90238 406.68757,159.09539 406.68757,120.05851 C 406.68757,81.021629 374.55246,49.214641 335.40451,49.214641 z M 335.40451,74.239632 C 361.17316,74.239632 381.71143,94.69709 381.71143,120.05851 C 381.71143,145.41993 361.17316,165.87739 335.40451,165.87739 C 309.63586,165.87739 289.09037,145.41993 289.09037,120.05851 C 289.09037,94.69709 309.63586,74.239632 335.40451,74.239632 z"
       id="path7946" />
    <rect
       style="opacity:1;fill:#808080;fill-opacity:1;stroke:#c83737;stroke-width:0;stroke-linecap:butt;stroke-linejoin:miter;stroke-miterlimit:4;stroke-dasharray:none;stroke-dashoffset:0;stroke-opacity:1"
       id="rect7950"
       width="25.122553"
       height="119.52858"
       x="264.05807"
       y="9.2697353"
       ry="13.531562" />
    <rect
       style="opacity:1;fill:#808080;fill-opacity:1;stroke:#c83737;stroke-width:0;stroke-linecap:butt;stroke-linejoin:miter;stroke-miterlimit:4;stroke-dasharray:none;stroke-dashoffset:0;stroke-opacity:1"
       id="rect7952"
       width="27.142859"
       height="182.09953"
       x="174.31731"
       y="9.5656185"
       ry="13.571429" />
    <rect
       style="opacity:1;fill:#808080;fill-opacity:1;stroke:#c83737;stroke-width:0;stroke-linecap:butt;stroke-linejoin:miter;stroke-miterlimit:4;stroke-dasharray:none;stroke-dashoffset:0;stroke-opacity:1"
       id="rect7954"
       width="27.142859"
       height="143.52811"
       x="218.70314"
       y="47.884495"
       ry="13.571429" />
    <path
       sodipodi:type="arc"
       style="opacity:1;fill:#808080;fill-opacity:1;stroke:#c83737;stroke-width:0;stroke-linecap:butt;stroke-linejoin:miter;stroke-miterlimit:4;stroke-dasharray:none;stroke-dashoffset:0;stroke-opacity:1"
       id="path7958"
       sodipodi:cx="284.86301"
       sodipodi:cy="153.90092"
       sodipodi:rx="15.152288"
       sodipodi:ry="15.152288"
       d="M 300.0153,153.90092 A 15.152288,15.152288 0 1 1 269.71072,153.90092 A 15.152288,15.152288 0 1 1 300.0153,153.90092 z"
       transform="translate(-52.833591,-129.48335)" />
    <path
       sodipodi:type="arc"
       style="opacity:1;fill:#666666;fill-opacity:1;stroke:#c83737;stroke-width:0;stroke-linecap:butt;stroke-linejoin:miter;stroke-miterlimit:4;stroke-dasharray:none;stroke-dashoffset:0;stroke-opacity:1"
       id="path7960"
       sodipodi:cx="284.86301"
       sodipodi:cy="153.90092"
       sodipodi:rx="15.152288"
       sodipodi:ry="15.152288"
       d="M 300.0153,153.90092 A 15.152288,15.152288 0 1 1 269.71072,153.90092 A 15.152288,15.152288 0 1 1 300.0153,153.90092 z"
       transform="translate(-178.074,-51.11423)" />
    <path
       sodipodi:type="arc"
       style="opacity:1;fill:#666666;fill-opacity:1;stroke:#c83737;stroke-width:0;stroke-linecap:butt;stroke-linejoin:miter;stroke-miterlimit:4;stroke-dasharray:none;stroke-dashoffset:0;stroke-opacity:1"
       id="path7962"
       sodipodi:cx="284.86301"
       sodipodi:cy="153.90092"
       sodipodi:rx="15.152288"
       sodipodi:ry="15.152288"
       d="M 300.0153,153.90092 A 15.152288,15.152288 0 1 1 269.71072,153.90092 A 15.152288,15.152288 0 1 1 300.0153,153.90092 z"
       transform="translate(73.689659,-52.889433)" />
  </g>
</svg>
