<?xml version="1.0" encoding="UTF-8" standalone="no"?>
<!-- Created with Inkscape (http://www.inkscape.org/) -->
<svg
   xmlns:svg="http://www.w3.org/2000/svg"
   xmlns="http://www.w3.org/2000/svg"
   xmlns:xlink="http://www.w3.org/1999/xlink"
   xmlns:inkscape="http://www.inkscape.org/namespaces/inkscape"
   version="1.0"
   width="128"
   height="128"
   id="svg2">
  <defs
     id="defs4">
    <linearGradient
       id="linearGradient7943">
      <stop
         id="stop7945"
         style="stop-color:#ff8181;stop-opacity:1"
         offset="0" />
      <stop
         id="stop7947"
         style="stop-color:#ff8181;stop-opacity:0"
         offset="1" />
    </linearGradient>
    <linearGradient
       x1="32.235165"
       y1="26.972357"
       x2="103.63575"
       y2="98.978394"
       id="linearGradient7949"
       xlink:href="#linearGradient7943"
       gradientUnits="userSpaceOnUse" />
    <filter
       height="1.3112391"
       y="-0.15561955"
       width="1.1987643"
       x="-0.09938217"
       id="filter8030">
      <feGaussianBlur
         id="feGaussianBlur8032"
         stdDeviation="3.645307"
         inkscape:collect="always" />
    </filter>
    <filter
       height="1.5790652"
       y="-0.28953263"
       width="1.5283016"
       x="-0.2641508"
       id="filter8340">
      <feGaussianBlur
         id="feGaussianBlur8342"
         stdDeviation="2.9158149"
         inkscape:collect="always" />
    </filter>
  </defs>
  <g
     id="layer1">
    <path
       d="M 120.20815,62.946175 A 54.270447,50.91169 0 1 1 11.667259,62.946175 A 54.270447,50.91169 0 1 1 120.20815,62.946175 z"
       transform="matrix(1.1302932,0,0,1.2083333,-10.358998,-12.053127)"
       id="path7167"
       style="opacity:1;fill:#d40000;fill-opacity:1;stroke:none;stroke-width:11.80000019;stroke-linecap:round;stroke-linejoin:round;stroke-miterlimit:4;stroke-dasharray:none;stroke-dashoffset:20;stroke-opacity:1" />
    <path
       d="M 55.133216,46.205306 L 55.133216,102.42406 L 88.164466,102.42406 L 88.164466,97.361556 L 61.289466,97.361556 L 61.289466,46.205306 L 55.133216,46.205306 z M 47.195716,46.674056 L 41.976966,47.549056 L 41.976966,62.299056 C 41.342592,61.888622 40.376711,61.43436 39.070716,60.986556 C 37.801997,60.538809 36.343612,60.330334 34.664466,60.330306 C 32.574828,60.330335 30.712553,60.70904 29.070716,61.455306 C 27.466174,62.201628 26.096401,63.237004 24.976966,64.580306 C 23.857519,65.92366 23.011497,67.527091 22.414466,69.392806 C 21.854742,71.258561 21.570714,73.310192 21.570716,75.549056 C 21.570713,77.899896 21.899048,80.021015 22.570716,81.924056 C 23.279691,83.789799 24.27076,85.368043 25.539466,86.674056 C 26.808159,87.980074 28.342099,88.996326 30.133216,89.705306 C 31.924309,90.414286 33.925565,90.767806 36.164466,90.767806 C 38.589903,90.767806 40.73621,90.603636 42.601966,90.267806 C 44.467677,89.931973 46.001616,89.603638 47.195716,89.267806 L 47.195716,46.674056 z M 89.164466,46.674056 L 83.976966,47.549056 L 83.976966,89.267806 C 85.171031,89.603639 86.704975,89.931971 88.570716,90.267806 C 90.436441,90.603639 92.582748,90.767806 95.008216,90.767806 C 97.247079,90.767806 99.248339,90.414285 101.03947,89.705306 C 102.83055,88.996327 104.3645,87.980072 105.63322,86.674056 C 106.90189,85.368045 107.86777,83.789799 108.53947,81.924056 C 109.24842,80.021015 109.60194,77.899899 109.60197,75.549056 C 109.60194,73.310189 109.29272,71.25856 108.69572,69.392806 C 108.13597,67.527093 107.31513,65.923661 106.19572,64.580306 C 105.07625,63.237002 103.6813,62.201626 102.03947,61.455306 C 100.43492,60.709041 98.597829,60.330334 96.508216,60.330306 C 94.829038,60.330335 93.345463,60.538807 92.039466,60.986556 C 90.770754,61.434362 89.79881,61.888622 89.164466,62.299056 L 89.164466,46.674056 z M 72.101966,48.892806 C 71.169092,48.892848 70.367376,49.227246 69.695716,49.861556 C 69.061362,50.458631 68.75821,51.285532 68.758216,52.330306 C 68.758212,53.375155 69.061362,54.195993 69.695716,54.830306 C 70.367375,55.427377 71.169093,55.736592 72.101966,55.736556 C 73.034826,55.736591 73.842605,55.427379 74.476966,54.830306 C 75.148621,54.195991 75.476951,53.375154 75.476966,52.330306 C 75.476955,51.285532 75.14862,50.458631 74.476966,49.861556 C 73.842606,49.227247 73.034827,48.892849 72.101966,48.892806 z M 69.539466,60.986556 L 69.539466,90.111556 L 74.726966,90.111556 L 74.726966,60.986556 L 69.539466,60.986556 z M 35.320716,64.924056 C 36.738657,64.924081 38.064124,65.157738 39.258216,65.642806 C 40.452266,66.127922 41.342593,66.620423 41.976966,67.142806 L 41.976966,85.580306 C 41.454537,85.72957 40.728379,85.868553 39.758216,86.017806 C 38.825328,86.129754 37.644908,86.174063 36.226966,86.174056 C 33.428346,86.17406 31.187367,85.283733 29.508216,83.455306 C 27.829044,81.589579 26.976958,78.944711 26.976966,75.549056 C 26.976958,74.056483 27.14719,72.667588 27.445716,71.361556 C 27.744225,70.055561 28.211541,68.919445 28.883216,67.986556 C 29.55487,67.016396 30.432141,66.290236 31.476966,65.767806 C 32.559079,65.20811 33.828112,64.924081 35.320716,64.924056 z M 95.820716,64.924056 C 97.313289,64.924081 98.588389,65.208111 99.633219,65.767806 C 100.71533,66.290235 101.58653,67.016396 102.25822,67.986556 C 102.92986,68.919446 103.42842,70.05556 103.72697,71.361556 C 104.02546,72.667589 104.16444,74.056486 104.16447,75.549056 C 104.16444,78.944708 103.34361,81.589579 101.66447,83.455306 C 99.985279,85.283732 97.744299,86.174063 94.945716,86.174056 C 93.527743,86.17406 92.322136,86.129756 91.351966,86.017806 C 90.419086,85.868551 89.686866,85.729572 89.164466,85.580306 L 89.164466,67.142806 C 89.798806,66.620424 90.720382,66.12792 91.914466,65.642806 C 93.108524,65.157739 94.402741,64.924081 95.820716,64.924056 z"
       id="path7980"
       style="font-size:40px;font-style:normal;font-weight:normal;fill:#220000;fill-opacity:1;stroke:none;stroke-width:1px;stroke-linecap:butt;stroke-linejoin:miter;stroke-opacity:1;filter:url(#filter8030);font-family:Bitstream Vera Sans" />
    <path
       d="M 120.20815,62.946175 A 54.270447,50.91169 0 1 1 11.667259,62.946175 A 54.270447,50.91169 0 1 1 120.20815,62.946175 z"
       transform="matrix(1.0949268,0,0,1.1681785,-8.0988252,-9.8489149)"
       id="path7169"
       style="opacity:1;fill:none;fill-opacity:1;stroke:#870000;stroke-width:4.42102385;stroke-linecap:round;stroke-linejoin:round;stroke-miterlimit:4;stroke-dasharray:none;stroke-dashoffset:20;stroke-opacity:1" />
    <path
       d="M 120.20815,62.946175 A 54.270447,50.91169 0 1 1 11.667259,62.946175 A 54.270447,50.91169 0 1 1 120.20815,62.946175 z"
       transform="matrix(1.0011255,0,0,1.0702228,-1.6313184,-3.9821973)"
       id="path7941"
       style="opacity:0.84249088;fill:none;fill-opacity:1;stroke:url(#linearGradient7949);stroke-width:4.81247473;stroke-linecap:round;stroke-linejoin:round;stroke-miterlimit:4;stroke-dasharray:none;stroke-dashoffset:20;stroke-opacity:1" />
    <path
       d="M 54.78125,46.875 L 54.78125,103.09375 L 87.8125,103.09375 L 87.8125,98.03125 L 60.9375,98.03125 L 60.9375,46.875 L 54.78125,46.875 z M 46.84375,47.34375 L 41.625,48.21875 L 41.625,62.96875 C 40.990626,62.558316 40.024745,62.104054 38.71875,61.65625 C 37.450031,61.208503 35.991646,61.000028 34.3125,61 C 32.222862,61.000029 30.360587,61.378734 28.71875,62.125 C 27.114208,62.871322 25.744435,63.906698 24.625,65.25 C 23.505553,66.593354 22.659531,68.196785 22.0625,70.0625 C 21.502776,71.928255 21.218748,73.979886 21.21875,76.21875 C 21.218747,78.56959 21.547082,80.690709 22.21875,82.59375 C 22.927725,84.459493 23.918794,86.037737 25.1875,87.34375 C 26.456193,88.649768 27.990133,89.66602 29.78125,90.375 C 31.572343,91.08398 33.573599,91.4375 35.8125,91.4375 C 38.237937,91.4375 40.384244,91.27333 42.25,90.9375 C 44.115711,90.601667 45.64965,90.273332 46.84375,89.9375 L 46.84375,47.34375 z M 88.8125,47.34375 L 83.625,48.21875 L 83.625,89.9375 C 84.819065,90.273333 86.353009,90.601665 88.21875,90.9375 C 90.084475,91.273333 92.230782,91.4375 94.65625,91.4375 C 96.895115,91.4375 98.896371,91.083979 100.6875,90.375 C 102.47858,89.666021 104.01253,88.649766 105.28125,87.34375 C 106.54992,86.037739 107.5158,84.459493 108.1875,82.59375 C 108.89645,80.690709 109.24997,78.569593 109.25,76.21875 C 109.24997,73.979883 108.94075,71.928254 108.34375,70.0625 C 107.784,68.196787 106.96316,66.593355 105.84375,65.25 C 104.72428,63.906696 103.32933,62.87132 101.6875,62.125 C 100.08295,61.378735 98.245859,61.000028 96.15625,61 C 94.477072,61.000029 92.993497,61.208501 91.6875,61.65625 C 90.418788,62.104056 89.446844,62.558316 88.8125,62.96875 L 88.8125,47.34375 z M 71.75,49.5625 C 70.817126,49.562542 70.01541,49.89694 69.34375,50.53125 C 68.709396,51.128325 68.406244,51.955226 68.40625,53 C 68.406246,54.044849 68.709396,54.865687 69.34375,55.5 C 70.015409,56.097071 70.817127,56.406286 71.75,56.40625 C 72.68286,56.406285 73.490639,56.097073 74.125,55.5 C 74.796655,54.865685 75.124985,54.044848 75.125,53 C 75.124989,51.955226 74.796654,51.128325 74.125,50.53125 C 73.49064,49.896941 72.682861,49.562543 71.75,49.5625 z M 69.1875,61.65625 L 69.1875,90.78125 L 74.375,90.78125 L 74.375,61.65625 L 69.1875,61.65625 z M 34.96875,65.59375 C 36.386691,65.593775 37.712158,65.827432 38.90625,66.3125 C 40.1003,66.797616 40.990627,67.290117 41.625,67.8125 L 41.625,86.25 C 41.102571,86.399264 40.376413,86.538247 39.40625,86.6875 C 38.473362,86.799448 37.292942,86.843757 35.875,86.84375 C 33.07638,86.843754 30.835401,85.953427 29.15625,84.125 C 27.477078,82.259273 26.624992,79.614405 26.625,76.21875 C 26.624992,74.726177 26.795224,73.337282 27.09375,72.03125 C 27.392259,70.725255 27.859575,69.589139 28.53125,68.65625 C 29.202904,67.68609 30.080175,66.95993 31.125,66.4375 C 32.207113,65.877804 33.476146,65.593775 34.96875,65.59375 z M 95.46875,65.59375 C 96.961321,65.593775 98.236422,65.877805 99.28125,66.4375 C 100.36336,66.959929 101.23456,67.68609 101.90625,68.65625 C 102.57789,69.58914 103.07645,70.725254 103.375,72.03125 C 103.67349,73.337283 103.81247,74.72618 103.8125,76.21875 C 103.81247,79.614402 102.99164,82.259273 101.3125,84.125 C 99.633316,85.953426 97.392336,86.843757 94.59375,86.84375 C 93.175777,86.843754 91.97017,86.79945 91,86.6875 C 90.06712,86.538245 89.3349,86.399266 88.8125,86.25 L 88.8125,67.8125 C 89.44684,67.290118 90.368416,66.797614 91.5625,66.3125 C 92.756558,65.827433 94.050775,65.593775 95.46875,65.59375 z"
       id="flowRoot7951"
       style="font-size:40px;font-style:normal;font-weight:normal;fill:#ffffff;fill-opacity:1;stroke:none;stroke-width:1px;stroke-linecap:butt;stroke-linejoin:miter;stroke-opacity:1;font-family:Bitstream Vera Sans" />
    <path
       d="M 73.317825,34.772253 C 73.170404,34.011254 73.727018,33.292712 74.469644,33.150312 C 75.365585,32.978515 76.210816,33.634241 76.376878,34.508929 C 76.576555,35.560679 75.806323,36.552086 74.779095,36.745226 C 73.547898,36.976716 72.388254,36.074533 72.164197,34.871557 C 71.896484,33.434195 72.950351,32.081392 74.355312,31.822114 C 76.028977,31.513247 77.603035,32.741062 77.902352,34.377616 C 78.25788,36.321508 76.831039,38.148432 74.929558,38.493168 C 72.677326,38.901494 70.562042,37.247442 70.165887,35.043572 C 69.697931,32.440265 71.610813,29.996838 74.15909,29.542584 C 77.161305,29.007411 79.97738,31.21453 80.497157,34.154255 C 81.107962,37.608818 78.567032,40.847243 75.183289,41.440779 C 71.216772,42.136538 67.500587,39.217638 66.824167,35.331228 C 66.033149,30.786391 69.379206,26.530775 73.833603,25.761376 C 79.030538,24.86372 83.894116,28.691638 84.767642,33.786651 C 85.784482,39.71757 81.413965,45.265143 75.597706,46.255093 C 68.842053,47.404932 62.526258,42.424478 61.406339,35.797595 C 60.766317,32.010396 61.825589,28.066813 64.18801,25.050914"
       transform="translate(-8.0584263,-6.5118301)"
       id="path8038"
       style="fill:none;fill-rule:evenodd;stroke:#350000;stroke-width:2.79999995;stroke-linecap:round;stroke-linejoin:miter;stroke-miterlimit:4;stroke-dasharray:none;stroke-opacity:1;filter:url(#filter8340)" />
    <path
       d="M 73.317825,34.772253 C 73.170404,34.011254 73.727018,33.292712 74.469644,33.150312 C 75.365585,32.978515 76.210816,33.634241 76.376878,34.508929 C 76.576555,35.560679 75.806323,36.552086 74.779095,36.745226 C 73.547898,36.976716 72.388254,36.074533 72.164197,34.871557 C 71.896484,33.434195 72.950351,32.081392 74.355312,31.822114 C 76.028977,31.513247 77.603035,32.741062 77.902352,34.377616 C 78.25788,36.321508 76.831039,38.148432 74.929558,38.493168 C 72.677326,38.901494 70.562042,37.247442 70.165887,35.043572 C 69.697931,32.440265 71.610813,29.996838 74.15909,29.542584 C 77.161305,29.007411 79.97738,31.21453 80.497157,34.154255 C 81.107962,37.608818 78.567032,40.847243 75.183289,41.440779 C 71.216772,42.136538 67.500587,39.217638 66.824167,35.331228 C 66.033149,30.786391 69.379206,26.530775 73.833603,25.761376 C 79.030538,24.86372 83.894116,28.691638 84.767642,33.786651 C 85.784482,39.71757 81.413965,45.265143 75.597706,46.255093 C 68.842053,47.404932 62.526258,42.424478 61.406339,35.797595 C 60.766317,32.010396 61.825589,28.066813 64.18801,25.050914"
       transform="translate(-7.7781746,-6.363961)"
       id="path8036"
       style="fill:none;fill-rule:evenodd;stroke:#ffffff;stroke-width:2.79999995;stroke-linecap:round;stroke-linejoin:miter;stroke-miterlimit:4;stroke-dasharray:none;stroke-opacity:1" />
  </g>
</svg>
